<svg xmlns="http://www.w3.org/2000/svg" xmlns:xlink="http://www.w3.org/1999/xlink" width="500" zoomAndPan="magnify" viewBox="0 0 375 374.999991" height="500" preserveAspectRatio="xMidYMid meet" version="1.0"><path fill="#ffffff" d="M 193.539062 102.796875 C 258.347656 55.632812 349.464844 90.285156 365.402344 168.460938 C 369.785156 190.066406 367.863281 211.027344 359.625 231.5625 C 332.570312 298.511719 250.96875 319.363281 193.429688 277.761719 C 192.574219 277.226562 191.71875 277.226562 190.863281 277.761719 C 156.105469 301.613281 120.171875 305.890625 82.953125 290.703125 C 32.582031 270.0625 5.203125 213.058594 20.820312 159.90625 C 42.527344 85.898438 128.726562 58.628906 190.648438 102.796875 C 191.613281 103.546875 192.574219 103.546875 193.539062 102.796875 Z M 181.238281 267.28125 C 138.886719 224.394531 139.207031 157.554688 181.238281 113.277344 C 182.09375 112.421875 181.988281 111.671875 181.023438 111.03125 C 159.527344 97.128906 137.925781 91.460938 116.214844 93.921875 C 63.703125 99.800781 22.636719 146.324219 29.054688 200.441406 C 34.613281 247.070312 70.65625 282.683594 117.605469 286.960938 C 139.636719 288.992188 160.8125 283.109375 181.023438 269.527344 C 182.09375 268.886719 182.09375 268.136719 181.238281 267.28125 Z M 320.269531 115.84375 C 285.832031 87.609375 240.59375 86.113281 202.734375 111.246094 C 201.878906 111.886719 201.773438 112.53125 202.523438 113.386719 C 244.445312 155.949219 245.621094 224.503906 202.628906 267.386719 C 201.773438 268.136719 201.878906 268.886719 202.734375 269.421875 C 220.273438 281.183594 238.5625 287.171875 257.492188 287.28125 C 298.347656 287.601562 334.386719 262.683594 349.039062 224.609375 C 363.90625 185.789062 352.140625 141.941406 320.269531 115.84375 Z M 192.894531 259.6875 C 232.464844 221.082031 231.503906 159.15625 193.109375 121.191406 C 192.363281 120.445312 191.507812 120.445312 190.757812 121.300781 C 165.839844 147.609375 156.960938 177.765625 164.128906 211.777344 C 167.550781 228.246094 176.425781 244.179688 190.757812 259.582031 C 191.507812 260.328125 192.253906 260.328125 192.894531 259.6875 Z M 192.894531 259.6875 " fill-opacity="1" fill-rule="evenodd"/><path fill="#ffffff" d="M 69.800781 208.03125 C 70.550781 208.355469 71.296875 208.460938 72.046875 208.246094 C 77.609375 207.175781 80.496094 204.183594 80.707031 199.261719 C 81.136719 188.460938 81.242188 177.554688 81.03125 166.539062 C 80.921875 163.757812 82.207031 161.9375 84.664062 160.871094 C 85.628906 160.441406 86.589844 160.335938 87.554688 160.546875 C 91.191406 161.402344 92.902344 163.648438 92.902344 167.394531 C 92.902344 174.988281 93.007812 183.007812 93.007812 191.5625 C 93.007812 200.546875 92.046875 206.75 89.90625 210.171875 C 83.167969 221.402344 67.125 224.074219 57.394531 214.769531 C 53.117188 210.601562 50.871094 206.320312 50.765625 202.042969 C 50.550781 190.386719 50.550781 178.621094 50.65625 166.75 C 50.765625 162.902344 52.6875 160.871094 56.433594 160.441406 C 57.179688 160.335938 57.824219 160.441406 58.464844 160.761719 C 61.246094 161.832031 62.636719 163.972656 62.636719 166.964844 C 62.636719 177.230469 62.636719 187.5 62.527344 197.871094 C 62.527344 202.578125 64.878906 206 69.800781 208.03125 Z M 69.800781 208.03125 " fill-opacity="1" fill-rule="evenodd"/><path fill="#ffffff" d="M 120.8125 177.125 L 129.15625 163.863281 C 131.1875 160.65625 133.96875 159.800781 137.496094 161.191406 C 138.246094 161.511719 138.996094 162.046875 139.742188 162.792969 C 141.347656 164.503906 141.667969 167.074219 140.386719 169.105469 L 127.765625 189.101562 C 127.230469 189.851562 127.230469 190.707031 127.765625 191.671875 L 140.171875 211.242188 C 140.707031 212.203125 141.027344 213.273438 141.027344 214.34375 C 141.027344 216.695312 139.742188 218.726562 137.605469 219.691406 L 136.855469 220.011719 C 134.289062 221.1875 131.292969 220.332031 129.796875 217.980469 L 120.601562 203.21875 C 120.386719 202.898438 120.066406 202.6875 119.636719 202.6875 C 119.210938 202.6875 118.890625 202.898438 118.675781 203.21875 L 109.90625 217.230469 C 108.410156 219.902344 104.878906 220.972656 101.992188 219.582031 L 99.746094 218.40625 C 98.355469 217.765625 97.5 216.480469 97.5 214.984375 C 97.5 214.234375 97.714844 213.59375 98.140625 212.953125 L 111.507812 191.882812 C 112.042969 191.027344 112.042969 189.851562 111.507812 188.890625 L 98.675781 168.785156 C 97.605469 167.074219 97.714844 164.71875 99.105469 163.222656 C 99.851562 162.367188 100.601562 161.726562 101.457031 161.296875 C 105.09375 159.585938 107.875 160.335938 110.011719 163.648438 L 118.566406 177.125 C 119.316406 178.300781 120.066406 178.300781 120.8125 177.125 Z M 120.8125 177.125 " fill-opacity="1" fill-rule="evenodd"/><path fill="#ffffff" d="M 271.503906 208.246094 C 272.359375 208.355469 273.105469 208.246094 273.855469 207.925781 C 278.347656 206.109375 280.59375 203.648438 280.59375 200.867188 C 280.914062 188.890625 281.019531 177.554688 280.914062 166.859375 C 280.914062 163.007812 282.839844 160.976562 286.582031 160.546875 C 287.117188 160.441406 287.652344 160.546875 288.078125 160.546875 C 291.5 161.082031 293.105469 163.117188 293 166.429688 C 292.675781 174.664062 292.785156 183.433594 293.105469 192.738281 C 293.425781 200.332031 292.355469 206.214844 289.683594 210.386719 C 281.339844 223.96875 261.878906 223.648438 253.535156 209.636719 C 251.394531 206.109375 250.328125 199.90625 250.433594 191.027344 C 250.433594 183.757812 250.433594 176.054688 250.539062 168.035156 C 250.539062 164.398438 252.25 161.832031 255.675781 160.546875 C 256.636719 160.121094 257.597656 160.226562 258.777344 160.761719 C 261.234375 161.832031 262.410156 163.648438 262.410156 166.324219 C 262.304688 177.445312 262.410156 188.460938 262.839844 199.371094 C 263.054688 204.289062 265.941406 207.285156 271.503906 208.246094 Z M 271.503906 208.246094 " fill-opacity="1" fill-rule="evenodd"/><path fill="#ffffff" d="M 318.34375 173.917969 L 318.34375 206.964844 C 318.34375 208.03125 318.878906 208.566406 320.054688 208.460938 C 324.441406 208.03125 326.578125 210.171875 326.472656 214.984375 C 326.367188 218.085938 323.90625 220.4375 320.910156 220.4375 L 303.691406 220.4375 C 301.769531 220.4375 299.84375 219.371094 298.878906 217.550781 C 295.992188 212.203125 299.523438 208.460938 304.976562 208.246094 C 305.832031 208.140625 306.261719 207.710938 306.261719 206.855469 L 306.261719 173.917969 C 306.261719 172.742188 305.726562 172.3125 304.65625 172.3125 C 300.269531 172.742188 298.023438 170.601562 298.023438 166.003906 C 298.132812 162.792969 300.699219 160.335938 303.800781 160.335938 L 320.589844 160.335938 C 323.800781 160.335938 326.472656 163.007812 326.472656 166.324219 C 326.472656 166.539062 326.472656 166.75 326.472656 166.964844 C 326.046875 170.707031 323.90625 172.417969 320.054688 172.207031 C 318.878906 172.207031 318.34375 172.742188 318.34375 173.917969 Z M 318.34375 173.917969 " fill-opacity="1" fill-rule="evenodd"/></svg>